<svg xmlns="http://www.w3.org/2000/svg" xmlns:xlink="http://www.w3.org/1999/xlink" viewBox="0 0 413.8 149.33"><defs><style>.cls-1{fill:none;}.cls-2{clip-path:url(#clip-path);}.cls-3{fill:#2c3435;}.cls-4{fill:#021c1d;}.cls-5{fill:#fefefe;}.cls-6{fill:#fcfdfd;}.cls-7{fill:#69a5ad;}.cls-8{fill:#043c46;}.cls-9{fill:#0b585b;}.cls-10{fill:#085759;}.cls-11{fill:#66a4ac;}.cls-12{fill:#053c47;}.cls-13{fill:#73b991;}.cls-14{fill:#081f20;}.cls-15{fill:#759ba0;}.cls-16{fill:#394644;}.cls-17{fill:#639c9f;}.cls-18{fill:#094b45;}.cls-19{fill:#17454b;}.cls-20{fill:#fff;}</style><clipPath id="clip-path" transform="translate(0 0)"><circle class="cls-1" cx="74.67" cy="74.67" r="74.67"/></clipPath></defs><g id="レイヤー_2" data-name="レイヤー 2"><g id="レイヤー_1-2" data-name="レイヤー 1"><g class="cls-2"><path class="cls-3" d="M65.54,0H83.42a5.21,5.21,0,0,0,1.26.73c4.85,1.19,9.84,2,14.55,3.58a71.45,71.45,0,0,1,23.89,13.91,74,74,0,0,1,17.41,22,70.58,70.58,0,0,1,7.71,24.44c0,.33.44.62.67.93V83.43c-.23.3-.64.59-.67.92a65.77,65.77,0,0,1-4.15,16.45,73.31,73.31,0,0,1-16.74,26A74.17,74.17,0,0,1,107.81,141a75.81,75.81,0,0,1-23.27,7.19,3.47,3.47,0,0,0-1.11.69H65.54a6.29,6.29,0,0,0-1.49-.7,76.08,76.08,0,0,1-19.55-5.57A77.16,77.16,0,0,1,26.08,131,75.34,75.34,0,0,1,8.93,109.76,70.72,70.72,0,0,1,1,86.12a13,13,0,0,0-1-2.7V65.92c.25-.3.65-.57.71-.9.31-1.51.48-3,.76-4.56a71.73,71.73,0,0,1,13.87-31A76.06,76.06,0,0,1,34.59,11.69,75.25,75.25,0,0,1,64.47.72C64.85.67,65.19.25,65.54,0ZM144.9,74.57A70.42,70.42,0,1,0,74.31,144.9,70.39,70.39,0,0,0,144.9,74.57Z" transform="translate(0 0)"/><path class="cls-4" d="M65.54,0c-.35.25-.69.67-1.07.72a75.25,75.25,0,0,0-29.88,11A76.06,76.06,0,0,0,15.34,29.45a71.73,71.73,0,0,0-13.87,31C1.19,62,1,63.51.71,65c-.06.33-.46.6-.71.9V0Z" transform="translate(0 0)"/><path class="cls-4" d="M0,83.42a13,13,0,0,1,1,2.7,70.72,70.72,0,0,0,7.89,23.64A75.34,75.34,0,0,0,26.08,131,77.16,77.16,0,0,0,44.5,142.65a76.08,76.08,0,0,0,19.55,5.57,6.29,6.29,0,0,1,1.49.7c-.69,0-1.37,0-2.05,0H0Z" transform="translate(0 0)"/><path class="cls-4" d="M148.91,65.54c-.23-.31-.63-.6-.67-.93a70.58,70.58,0,0,0-7.71-24.44,74,74,0,0,0-17.41-22A71.45,71.45,0,0,0,99.23,4.31c-4.71-1.6-9.7-2.39-14.55-3.58A5.21,5.21,0,0,1,83.42,0H149q0,9.87,0,19.74Q148.95,42.63,148.91,65.54Z" transform="translate(0 0)"/><path class="cls-5" d="M148.91,65.54q0-22.9.05-45.8Q149,9.87,149,0a6.74,6.74,0,0,1,.36,1.49q0,31.85,0,63.68v84.16H1.68A7.76,7.76,0,0,1,0,149H63.49c.68,0,1.36,0,2.05,0H83.43c.24,0,.49,0,.74,0h63.67c.35,0,.7-.06,1.12-.1v-5.68q0-29.88-.05-59.75Z" transform="translate(0 0)"/><path class="cls-6" d="M144.9,74.57A70.42,70.42,0,1,1,74.66,4.07,70.38,70.38,0,0,1,144.9,74.57Zm-79-33Q66,34.26,66,26.89L66,26a11.93,11.93,0,0,1,2-.31q16,0,32,0h2.57C76,10.27,43,20,28.84,41.81c4.18,0,8.26,0,12.33,0q12.18,0,24.36-.09ZM91,104.22v.84c-.35,1.17.12,1.57,1.29,1.52a36,36,0,0,1,4.28,0c1.53.12,2-.4,2-2-.08-6.64,0-13.28,0-19.92V82.43c.78-.06,1.32-.13,1.86-.13,4.29,0,8.57.06,12.85,0,1.48,0,1.92.41,1.9,1.88-.06,6.83,0,13.65,0,20.48,0,.6,0,1.2.08,1.76a4.77,4.77,0,0,0,.73.16,21.87,21.87,0,0,0,3.53,0,3.29,3.29,0,0,0,2.08-1.1,55.25,55.25,0,0,0,9.32-31.27A54,54,0,0,0,125,49.58l-1.38-2.7-.44.12V74.8H66.78v31.69h7.33V82.68a5.86,5.86,0,0,1,1.38-.36c4.71,0,9.42,0,14.13,0a6.49,6.49,0,0,1,1.41.31v21.59ZM55.13,58.55l-.65.05.57.72L64.68,69l1.5,1.74c0-4.29,0-8,0-11.71,0-.15-.41-.29-.63-.43ZM44.6,122.18l2.33,1.42.07.1h.13l2.7,1.56V107.62l-.3-.35h-21A53.66,53.66,0,0,0,44.6,122.18Zm53-79.7-30.49,0c-.09,0-.19.13-.36.26v15a8.69,8.69,0,0,0,1.82.42q18.12,0,36.23-.09c.54,0,1.08-.05,1.66-.09V42.48ZM23.27,51.23c-.27.43-.43.62-.53.84a56.55,56.55,0,0,0-2.85,36.71c.34,1.36.9,1.72,2.25,1.71,8.73-.06,17.47,0,26.21,0,.48,0,.95-.07,1.56-.12,0-1.64,0-3.18,0-4.72,0-2.54.64-5.36-.26-7.54s-3.33-3.73-5.12-5.53C37.5,65.47,30.45,58.42,23.27,51.23Zm78.51,72.6,0-.55H82.31c-4.64,0-9.29,0-13.94,0-.56,0-1.58.51-1.61.85-.15,2-.08,4-.08,6.2A56.43,56.43,0,0,0,101.78,123.83Z" transform="translate(0 0)"/><path class="cls-4" d="M148.91,83.43q0,29.88.05,59.75v5.68c-.42,0-.77.1-1.12.1H84.17c-.25,0-.5,0-.74,0a3.47,3.47,0,0,1,1.11-.69A75.81,75.81,0,0,0,107.81,141a74.17,74.17,0,0,0,19.54-14.22,73.31,73.31,0,0,0,16.74-26,65.77,65.77,0,0,0,4.15-16.45C148.27,84,148.68,83.73,148.91,83.43Z" transform="translate(0 0)"/><path class="cls-7" d="M71.5,106.49H66.78V74.8h56.44V47l.44-.12,1.38,2.7a54,54,0,0,1,5.87,24.57,55.25,55.25,0,0,1-9.32,31.27,3.29,3.29,0,0,1-2.08,1.1,21.87,21.87,0,0,1-3.53,0,4.77,4.77,0,0,1-.73-.16c0-.56-.08-1.16-.08-1.76,0-6.83,0-13.65,0-20.48,0-1.47-.42-1.91-1.9-1.88-4.28.09-8.56,0-12.85,0-.54,0-1.08.07-1.86.13V84.7c0,6.64,0,13.28,0,19.92,0,1.57-.51,2.09-2,2a36,36,0,0,0-4.28,0c-1.17,0-1.64-.35-1.29-1.52l.59,1V83.13c0-.25,0-.49,0-.73l-.54.23a6.49,6.49,0,0,0-1.41-.31c-4.71,0-9.42,0-14.13,0a5.86,5.86,0,0,0-1.38.36,11.08,11.08,0,0,0-.36,1.93c0,6.32,0,12.63,0,18.94,0,.67,0,1.33-.07,1.7Z" transform="translate(0 0)"/><path class="cls-8" d="M23.27,51.23c7.18,7.19,14.23,14.24,21.26,21.31,1.79,1.8,4.23,3.35,5.12,5.53s.24,5,.26,7.54c0,1.54,0,3.08,0,4.72-.61,0-1.08.12-1.56.12-8.74,0-17.48,0-26.21,0-1.35,0-1.91-.35-2.25-1.71a56.55,56.55,0,0,1,2.85-36.71C22.84,51.85,23,51.66,23.27,51.23Z" transform="translate(0 0)"/><path class="cls-9" d="M65.53,41.71q-12.18,0-24.36.09c-4.07,0-8.15,0-12.33,0C43,20,76,10.27,102.56,25.67H100q-16,0-32,0A11.93,11.93,0,0,0,66,26c-.16.19-.48.37-.48.56C65.53,31.61,65.54,36.66,65.53,41.71Z" transform="translate(0 0)"/><path class="cls-10" d="M66.7,57.7v-15c.17-.13.27-.26.36-.26l30.49,0C92.71,47.37,87.89,52.26,83,57.11a2.31,2.31,0,0,1-1.45.65C76.61,57.77,71.66,57.73,66.7,57.7Z" transform="translate(0 0)"/><path class="cls-11" d="M66.7,57.7c5,0,9.91.07,14.87.06A2.31,2.31,0,0,0,83,57.11c4.87-4.85,9.69-9.74,14.53-14.63h8.86V57.94c-.58,0-1.12.09-1.66.09q-18.12.06-36.23.09A8.69,8.69,0,0,1,66.7,57.7Z" transform="translate(0 0)"/><path class="cls-12" d="M47.13,123.7H47l-.07-.1a2,2,0,0,0-2.33-1.42,53.66,53.66,0,0,1-16-14.91h21l.3.35v11.92l-.5.37.5.38v3.34Z" transform="translate(0 0)"/><path class="cls-13" d="M101.78,123.83a56.43,56.43,0,0,1-35.1,6.55c0-2.16-.07-4.19.08-6.2,0-.34,1-.84,1.61-.85,4.65-.07,9.3,0,13.94,0h19.42Z" transform="translate(0 0)"/><path class="cls-14" d="M64.68,69l-9.63-9.64.08-.77H65.52c0,3,.11,6.06.06,9.08C65.58,68.09,65,68.52,64.68,69Z" transform="translate(0 0)"/><path class="cls-15" d="M71.5,106.49l2.16-1.24c0-.37.07-1,.07-1.7,0-6.31,0-12.62,0-18.94a11.08,11.08,0,0,1,.36-1.93v23.81Z" transform="translate(0 0)"/><path class="cls-16" d="M64.68,69c.32-.44.9-.87.9-1.32,0-3,0-6-.06-9.08.22.14.63.28.63.43,0,3.71,0,7.42,0,11.71Z" transform="translate(0 0)"/><path class="cls-17" d="M91,82.63l.54-.23c0,.24,0,.48,0,.73V106l-.59-1c0-.28,0-.56,0-.84a19.09,19.09,0,0,0,.21-2q0-7.81,0-15.63c0-1-.14-2.09-.21-3.13Z" transform="translate(0 0)"/><path class="cls-7" d="M91,83.46c.07,1,.2,2.09.21,3.13q0,7.81,0,15.63a19.09,19.09,0,0,1-.21,2Z" transform="translate(0 0)"/><path class="cls-18" d="M65.53,41.71c0-5.05,0-10.1,0-15.15,0-.19.32-.37.48-.56l0,.89q-.06,7.37-.11,14.72Z" transform="translate(0 0)"/><path class="cls-9" d="M65.91,41.61Q66,34.26,66,26.89,66,34.26,65.91,41.61Z" transform="translate(0 0)"/><path class="cls-19" d="M47.13,123.7l2.7-.07v1.63Z" transform="translate(0 0)"/><path class="cls-19" d="M44.6,122.18a2,2,0,0,1,2.33,1.42Z" transform="translate(0 0)"/><path class="cls-16" d="M55.13,58.55l-.08.77-.57-.72Z" transform="translate(0 0)"/><path class="cls-19" d="M49.83,120.29l-.5-.38.5-.37Z" transform="translate(0 0)"/><path class="cls-19" d="M49.83,107.62l-.3-.35Z" transform="translate(0 0)"/></g><path class="cls-20" d="M256.26,121l-13.49-49.5L214.65,121.2,192,34.54h15.55L220,90,238.2,54.66l-5.49-20.12H246l14.75,53.85,24.47-53.85h14.29Z" transform="translate(0 0)"/><path class="cls-20" d="M321.2,69l-5.95,48.36h-12.8L308.4,69Zm-9.6-21.84a7.63,7.63,0,0,1,5.48-2,8,8,0,0,1,5,1.6,5.5,5.5,0,0,1,2.11,4.68,6.89,6.89,0,0,1-2.23,5.21,7.72,7.72,0,0,1-5.54,2.11A8.73,8.73,0,0,1,311.48,57a5.46,5.46,0,0,1-2.17-4.69A7.22,7.22,0,0,1,311.6,47.11Z" transform="translate(0 0)"/><path class="cls-20" d="M363.73,88.39l16.12,28.92h-15l-11-22L348,99.7l-2.17,17.61H333l10.86-89.17h12.8l-7.09,58.07,26.3-18.4,7.09,6.86Z" transform="translate(0 0)"/><path class="cls-20" d="M410.83,69l-5.95,48.36h-12.8L398,69Zm-9.6-21.84a7.63,7.63,0,0,1,5.48-2,8,8,0,0,1,5,1.6,5.5,5.5,0,0,1,2.11,4.68,6.89,6.89,0,0,1-2.23,5.21A7.72,7.72,0,0,1,406,58.66,8.73,8.73,0,0,1,401.11,57a5.46,5.46,0,0,1-2.17-4.69A7.22,7.22,0,0,1,401.23,47.11Z" transform="translate(0 0)"/></g></g></svg>