<svg xmlns="http://www.w3.org/2000/svg" xmlns:xlink="http://www.w3.org/1999/xlink" viewBox="0 0 413.8 149.33"><defs><style>.cls-1{fill:none;}.cls-2{clip-path:url(#clip-path);}.cls-3{fill:#2c3435;}.cls-4{fill:#021c1d;}.cls-5{fill:#fefefe;}.cls-6{fill:#192628;}.cls-7{fill:#fcfdfd;}.cls-8{fill:#69a5ad;}.cls-9{fill:#043c46;}.cls-10{fill:#0b585b;}.cls-11{fill:#085759;}.cls-12{fill:#66a4ac;}.cls-13{fill:#053c47;}.cls-14{fill:#73b991;}.cls-15{fill:#081f20;}.cls-16{fill:#394644;}.cls-17{fill:#639c9f;}.cls-18{fill:#62a5aa;}.cls-19{fill:#094b45;}.cls-20{fill:#17454b;}.cls-21{fill:#62a6ab;}.cls-22{fill:#62a6ad;}</style><clipPath id="clip-path" transform="translate(0 0)"><circle class="cls-1" cx="74.67" cy="74.67" r="74.67"/></clipPath></defs><g id="レイヤー_2" data-name="レイヤー 2"><g id="レイヤー_1-2" data-name="レイヤー 1"><g class="cls-2"><path class="cls-3" d="M149.33,65.54v2.24l-.56.28.56.46v14.9c-.24.29-.68.57-.71.89a65.84,65.84,0,0,1-4.15,16.46,73.23,73.23,0,0,1-16.73,26A74,74,0,0,1,108,141.12a75.89,75.89,0,0,1-23.11,7.11c-.4.07-.74.45-1.11.69H65.91a3.54,3.54,0,0,0-1.11-.68c-1.76-.34-3.55-.48-5.29-.89a78.28,78.28,0,0,1-23.62-9.47A73.82,73.82,0,0,1,14.11,117.5,71.55,71.55,0,0,1,1.42,86.16a14.6,14.6,0,0,0-1-2.74V66.61A10.75,10.75,0,0,0,1,65.06c.91-4,1.66-8,2.69-11.89,3-11.39,9.07-21,16.92-29.61A72.12,72.12,0,0,1,35,11.66,74.88,74.88,0,0,1,64.84.72c.39,0,.72-.47,1.08-.72H83.79c.3.25.56.67.89.71A76.55,76.55,0,0,1,106.43,7.1a69.18,69.18,0,0,1,18.94,12.8,110.86,110.86,0,0,1,9.26,10.35,61,61,0,0,1,9,15.71,67.89,67.89,0,0,1,5,18.88C148.66,65.1,149.09,65.31,149.33,65.54Zm-4.05,9A70.42,70.42,0,1,0,74.7,144.9,70.4,70.4,0,0,0,145.28,74.55Z" transform="translate(0 0)"/><path class="cls-4" d="M65.92,0c-.36.25-.69.67-1.08.72A74.88,74.88,0,0,0,35,11.66a72.12,72.12,0,0,0-14.38,11.9C12.77,32.15,6.67,41.78,3.7,53.17,2.67,57.1,1.92,61.1,1,65.06a10.75,10.75,0,0,1-.59,1.55c0-.86,0-1.73,0-2.6V0Z" transform="translate(0 0)"/><path class="cls-4" d="M149.33,65.54c-.24-.23-.67-.44-.69-.7a67.89,67.89,0,0,0-5-18.88,61,61,0,0,0-9-15.71,110.86,110.86,0,0,0-9.26-10.35A69.18,69.18,0,0,0,106.43,7.1,76.55,76.55,0,0,0,84.68.71c-.33,0-.59-.46-.89-.71h65.54Z" transform="translate(0 0)"/><path class="cls-4" d="M83.8,148.92c.37-.24.71-.62,1.11-.69A75.89,75.89,0,0,0,108,141.12a74,74,0,0,0,19.72-14.32,73.23,73.23,0,0,0,16.73-26,65.84,65.84,0,0,0,4.15-16.46c0-.32.47-.6.71-.89V149H130Z" transform="translate(0 0)"/><path class="cls-5" d="M83.8,148.92,130,149h19.36a6.6,6.6,0,0,1-1.49.36q-31.83,0-63.68,0H0Q0,75.5,0,1.68A8.38,8.38,0,0,1,.37,0V64c0,.87,0,1.74,0,2.6V83.42q0,32.58,0,65.16c0,.1.12.2.24.38H6.15l59.76,0Z" transform="translate(0 0)"/><path class="cls-6" d="M149.33,68.52l-.56-.46.56-.28Z" transform="translate(0 0)"/><path class="cls-7" d="M145.28,74.55A70.42,70.42,0,1,1,75,4.07,70.38,70.38,0,0,1,145.28,74.55Zm-79-32.94q.06-7.35.11-14.72l0-.89a12,12,0,0,1,2-.31q16,0,32,0h2.57C76.37,10.27,43.33,20,29.22,41.81c4.17,0,8.25,0,12.33,0l24.35-.09Zm4.85,64.88h3.45v-24a9.31,9.31,0,0,1,1.07-.16q7.27,0,14.53,0a5,5,0,0,1,1.23.31v22.43c-.34,1.17.12,1.58,1.29,1.52a28.05,28.05,0,0,1,4.1,0c1.69.17,2.25-.4,2.23-2.16C98.91,97.86,99,91.28,99,84.7V82.43c.78-.06,1.32-.13,1.87-.13,4.28,0,8.56.06,12.85,0,1.48,0,1.91.42,1.89,1.88-.06,6.77,0,13.53,0,20.3v2.12c1.51,0,2.75-.09,4,0a2.61,2.61,0,0,0,2.71-1.45c10.22-16.69,11.83-34.14,4.66-52.35-.8-2-1.86-4-2.8-5.93l-.5.14V74.79H67.22a6.83,6.83,0,0,0-.16.92q0,14.9,0,29.79a2.9,2.9,0,0,0,.36,1l2.23,0ZM55.43,59.32,65.06,69l1.49,1.74c0-4.29,0-8,0-11.71,0-.15-.42-.29-.64-.43H55.51l-.66.05ZM49.9,107.27H29a53.51,53.51,0,0,0,16,14.91l2.33,1.42.08.1h.12l2.7,1.56v-5.72c0-4,0-8,0-11.92Zm48-64.79-30.48,0c-.1,0-.19.13-.37.26v15a8.69,8.69,0,0,0,1.82.42q18.12,0,36.23-.09c.54,0,1.08-.06,1.66-.09V42.48ZM20.7,90.33H50.28c0-3.65.09-7.18-.05-10.7a4.68,4.68,0,0,0-1.18-2.87C41,68.59,32.88,60.5,24.78,52.4c-.37-.37-.78-.68-1.32-1.14A56.75,56.75,0,0,0,20.7,90.33Zm81.57,33.53-.16-.42a1.74,1.74,0,0,0-.48-.14c-11.09,0-22.18,0-33.27,0-1.13,0-1.37.51-1.34,1.47a20.89,20.89,0,0,1,0,3.71c-.24,1.74.67,2.09,2.09,2.22a57,57,0,0,0,26.05-3.57C97.58,126.16,99.9,125,102.27,123.86Z" transform="translate(0 0)"/><path class="cls-4" d="M65.91,148.92,6.15,149H.64c-.12-.18-.24-.28-.24-.38q0-32.58,0-65.16a14.6,14.6,0,0,1,1,2.74A71.55,71.55,0,0,0,14.11,117.5a73.82,73.82,0,0,0,21.78,20.38,78.28,78.28,0,0,0,23.62,9.47c1.74.41,3.53.55,5.29.89A3.54,3.54,0,0,1,65.91,148.92Z" transform="translate(0 0)"/><path class="cls-8" d="M91.41,82.63a5,5,0,0,0-1.23-.31q-7.26,0-14.53,0a9.31,9.31,0,0,0-1.07.16v24H71.87L73.36,105l-.74-.75h-.37c-.51-.5-1-1-1.51-1.5a18.49,18.49,0,0,1-1.1-1.49c1.37.23,1.51-.57,1.5-1.66,0-6.82,0-13.65,0-20.47a3.08,3.08,0,0,0-.1-1.1.87.87,0,0,0-.64-.48.83.83,0,0,0-.65.47,6.11,6.11,0,0,0-.1,1.48v21.76c-1.32-.17-1.52.57-1.51,1.68s.56,1.37,1.51,1.32c.74,0,1.49,0,2.24,0a15.82,15.82,0,0,1-2.95.71c-1.08,0-1.67.31-1.52,1.48a2.9,2.9,0,0,1-.36-1q0-14.9,0-29.79a6.83,6.83,0,0,1,.16-.92h56.37V47l.5-.14c.94,2,2,3.9,2.8,5.93,7.17,18.21,5.56,35.66-4.66,52.35a2.61,2.61,0,0,1-2.71,1.45c-1.23-.11-2.47,0-4,0v-2.12c0-6.77,0-13.53,0-20.3,0-1.46-.41-1.91-1.89-1.88-4.29.09-8.57,0-12.85,0-.55,0-1.09.07-1.87.13V84.7c0,6.58,0,13.16.06,19.73,0,1.76-.54,2.33-2.23,2.16a28.05,28.05,0,0,0-4.1,0c-1.17.06-1.63-.35-1.29-1.52l.59,1V83.13c0-.25,0-.49,0-.73Z" transform="translate(0 0)"/><path class="cls-9" d="M20.7,90.33a56.75,56.75,0,0,1,2.76-39.07c.54.46.95.77,1.32,1.14C32.88,60.5,41,68.59,49.05,76.76a4.68,4.68,0,0,1,1.18,2.87c.14,3.52.05,7.05.05,10.7Z" transform="translate(0 0)"/><path class="cls-10" d="M65.9,41.71l-24.35.09c-4.08,0-8.16,0-12.33,0C43.33,20,76.37,10.27,102.93,25.67h-2.57q-16,0-32,0a12,12,0,0,0-2,.31c-.17.19-.48.37-.48.56C65.91,31.61,65.91,36.66,65.9,41.71Z" transform="translate(0 0)"/><path class="cls-11" d="M67.07,57.7v-15c.18-.13.27-.26.37-.26l30.48,0Q90.68,49.82,83.4,57.11a2.35,2.35,0,0,1-1.46.65C77,57.77,72,57.73,67.07,57.7Z" transform="translate(0 0)"/><path class="cls-12" d="M67.07,57.7c5,0,9.91.07,14.87.06a2.35,2.35,0,0,0,1.46-.65q7.29-7.28,14.52-14.63h8.86V57.94c-.58,0-1.12.09-1.66.09q-18.11.06-36.23.09A8.69,8.69,0,0,1,67.07,57.7Z" transform="translate(0 0)"/><path class="cls-13" d="M47.5,123.7h-.12l-.08-.1A2,2,0,0,0,45,122.18a53.51,53.51,0,0,1-16-14.91H49.9l.3.35c0,4,0,7.95,0,11.92l-.51.37.51.38v3.34Z" transform="translate(0 0)"/><path class="cls-14" d="M102.27,123.86c-2.37,1.09-4.69,2.3-7.12,3.24a57,57,0,0,1-26.05,3.57c-1.42-.13-2.33-.48-2.09-2.22a20.89,20.89,0,0,0,0-3.71c0-1,.21-1.47,1.34-1.47,11.09,0,22.18,0,33.27,0a1.74,1.74,0,0,1,.48.14Z" transform="translate(0 0)"/><path class="cls-15" d="M55.51,58.55H65.89c0,3,.11,6.06.07,9.08,0,.45-.59.88-.9,1.32l-9.63-9.64Z" transform="translate(0 0)"/><path class="cls-16" d="M65.06,69c.31-.44.89-.87.9-1.32,0-3,0-6-.07-9.08.22.14.63.28.64.43,0,3.71,0,7.42,0,11.71Z" transform="translate(0 0)"/><path class="cls-17" d="M91.41,82.63l.53-.23c0,.24,0,.48,0,.73V106l-.59-1c0-.28,0-.56,0-.84a19.09,19.09,0,0,0,.21-2q0-7.81,0-15.63c0-1-.14-2.09-.21-3.13Z" transform="translate(0 0)"/><path class="cls-8" d="M91.4,83.46c.07,1,.21,2.08.21,3.13q0,7.81,0,15.63a19.09,19.09,0,0,1-.21,2Z" transform="translate(0 0)"/><path class="cls-18" d="M73.36,105l-1.49,1.46h-.74c-.5-1-1-1-1.49,0l-2.23,0c-.15-1.17.44-1.43,1.52-1.48a15.82,15.82,0,0,0,2.95-.71h.74Z" transform="translate(0 0)"/><path class="cls-19" d="M65.9,41.71c0-5.05,0-10.1,0-15.15,0-.19.31-.37.48-.56l0,.89q0,7.37-.11,14.72Z" transform="translate(0 0)"/><path class="cls-10" d="M66.28,41.61q.06-7.35.11-14.72Q66.35,34.26,66.28,41.61Z" transform="translate(0 0)"/><path class="cls-20" d="M47.5,123.7l2.7-.07v1.63Z" transform="translate(0 0)"/><path class="cls-20" d="M45,122.18a2,2,0,0,1,2.33,1.42Z" transform="translate(0 0)"/><path class="cls-8" d="M69.64,106.49c.5-1,1-1,1.49,0Z" transform="translate(0 0)"/><path class="cls-16" d="M55.51,58.55l-.08.77-.58-.72Z" transform="translate(0 0)"/><path class="cls-20" d="M50.21,120.29l-.51-.38.51-.37Z" transform="translate(0 0)"/><path class="cls-20" d="M50.2,107.62l-.3-.35Z" transform="translate(0 0)"/><path class="cls-21" d="M69.64,101.27V79.52a6.11,6.11,0,0,1,.1-1.48.83.83,0,0,1,.65-.47.87.87,0,0,1,.64.48,3.08,3.08,0,0,1,.1,1.1c0,6.82,0,13.65,0,20.47C71.15,100.71,71,101.51,69.64,101.27Z" transform="translate(0 0)"/><path class="cls-22" d="M72.25,104.27h-.37c-.75,0-1.5,0-2.24,0-1,0-1.51-.19-1.51-1.32s.19-1.85,1.51-1.67c.36.5.7,1,1.1,1.48S71.74,103.77,72.25,104.27Z" transform="translate(0 0)"/><path class="cls-22" d="M73.36,105l-.74-.75Z" transform="translate(0 0)"/></g><path d="M256.26,121l-13.49-49.5L214.65,121.2,192,34.54h15.55L220,90,238.2,54.66l-5.49-20.12H246l14.75,53.85,24.47-53.85h14.29Z" transform="translate(0 0)"/><path d="M321.2,69l-5.95,48.36h-12.8L308.4,69Zm-9.6-21.84a7.63,7.63,0,0,1,5.48-2,8,8,0,0,1,5,1.6,5.5,5.5,0,0,1,2.11,4.68,6.89,6.89,0,0,1-2.23,5.21,7.72,7.72,0,0,1-5.54,2.11A8.73,8.73,0,0,1,311.48,57a5.46,5.46,0,0,1-2.17-4.69A7.22,7.22,0,0,1,311.6,47.11Z" transform="translate(0 0)"/><path d="M363.73,88.39l16.12,28.92h-15l-11-22L348,99.7l-2.17,17.61H333l10.86-89.17h12.8l-7.09,58.07,26.3-18.4,7.09,6.86Z" transform="translate(0 0)"/><path d="M410.83,69l-5.95,48.36h-12.8L398,69Zm-9.6-21.84a7.63,7.63,0,0,1,5.48-2,8,8,0,0,1,5,1.6,5.5,5.5,0,0,1,2.11,4.68,6.89,6.89,0,0,1-2.23,5.21A7.72,7.72,0,0,1,406,58.66,8.73,8.73,0,0,1,401.11,57a5.46,5.46,0,0,1-2.17-4.69A7.22,7.22,0,0,1,401.23,47.11Z" transform="translate(0 0)"/></g></g></svg>